<?xml version="1.0" encoding="UTF-8" standalone="no"?>
<!DOCTYPE svg PUBLIC "-//W3C//DTD SVG 1.1//EN"
 "http://www.w3.org/Graphics/SVG/1.1/DTD/svg11.dtd">
<!-- Generated by graphviz version 2.43.0 (0)
 -->
<!-- Title: tree Pages: 1 -->
<svg width="2137pt" height="332pt"
 viewBox="0.00 0.00 2136.53 332.00" xmlns="http://www.w3.org/2000/svg" xmlns:xlink="http://www.w3.org/1999/xlink">
<g id="graph0" class="graph" transform="scale(1 1) rotate(0) translate(4 328)">
<title>tree</title>
<polygon fill="white" stroke="transparent" points="-4,4 -4,-328 2132.53,-328 2132.53,4 -4,4"/>
<!-- node(10,4) -->
<g id="node1" class="node">
<title>node(10,4)</title>
<ellipse fill="none" stroke="black" cx="1623.34" cy="-306" rx="60.39" ry="18"/>
<text text-anchor="middle" x="1623.34" y="-302.3" font-family="Times,serif" font-size="14.00">node(10,4)</text>
</g>
<!-- node(7,3) -->
<g id="node2" class="node">
<title>node(7,3)</title>
<ellipse fill="none" stroke="black" cx="1465.34" cy="-234" rx="54.69" ry="18"/>
<text text-anchor="middle" x="1465.34" y="-230.3" font-family="Times,serif" font-size="14.00">node(7,3)</text>
</g>
<!-- node(10,4)&#45;&gt;node(7,3) -->
<g id="edge1" class="edge">
<title>node(10,4)&#45;&gt;node(7,3)</title>
<path fill="none" stroke="black" d="M1590.98,-290.67C1566.38,-279.76 1532.37,-264.7 1505.94,-252.99"/>
<polygon fill="black" stroke="black" points="1507.14,-249.69 1496.57,-248.84 1504.3,-256.09 1507.14,-249.69"/>
</g>
<!-- node(10,2) -->
<g id="node17" class="node">
<title>node(10,2)</title>
<ellipse fill="none" stroke="black" cx="1749.34" cy="-234" rx="60.39" ry="18"/>
<text text-anchor="middle" x="1749.34" y="-230.3" font-family="Times,serif" font-size="14.00">node(10,2)</text>
</g>
<!-- node(10,4)&#45;&gt;node(10,2) -->
<g id="edge2" class="edge">
<title>node(10,4)&#45;&gt;node(10,2)</title>
<path fill="none" stroke="black" d="M1650.68,-289.81C1669.01,-279.63 1693.34,-266.11 1713.25,-255.05"/>
<polygon fill="black" stroke="black" points="1715.01,-258.08 1722.05,-250.16 1711.61,-251.96 1715.01,-258.08"/>
</g>
<!-- node(3,2) -->
<g id="node3" class="node">
<title>node(3,2)</title>
<ellipse fill="none" stroke="black" cx="743.34" cy="-162" rx="54.69" ry="18"/>
<text text-anchor="middle" x="743.34" y="-158.3" font-family="Times,serif" font-size="14.00">node(3,2)</text>
</g>
<!-- node(7,3)&#45;&gt;node(3,2) -->
<g id="edge3" class="edge">
<title>node(7,3)&#45;&gt;node(3,2)</title>
<path fill="none" stroke="black" d="M1413.7,-227.99C1283.98,-215.42 944.79,-182.53 804.97,-168.97"/>
<polygon fill="black" stroke="black" points="805.14,-165.48 794.85,-167.99 804.47,-172.44 805.14,-165.48"/>
</g>
<!-- node(7,2) -->
<g id="node10" class="node">
<title>node(7,2)</title>
<ellipse fill="none" stroke="black" cx="1465.34" cy="-162" rx="54.69" ry="18"/>
<text text-anchor="middle" x="1465.34" y="-158.3" font-family="Times,serif" font-size="14.00">node(7,2)</text>
</g>
<!-- node(7,3)&#45;&gt;node(7,2) -->
<g id="edge4" class="edge">
<title>node(7,3)&#45;&gt;node(7,2)</title>
<path fill="none" stroke="black" d="M1465.34,-215.7C1465.34,-207.98 1465.34,-198.71 1465.34,-190.11"/>
<polygon fill="black" stroke="black" points="1468.84,-190.1 1465.34,-180.1 1461.84,-190.1 1468.84,-190.1"/>
</g>
<!-- node(1,1) -->
<g id="node4" class="node">
<title>node(1,1)</title>
<ellipse fill="none" stroke="black" cx="367.34" cy="-90" rx="54.69" ry="18"/>
<text text-anchor="middle" x="367.34" y="-86.3" font-family="Times,serif" font-size="14.00">node(1,1)</text>
</g>
<!-- node(3,2)&#45;&gt;node(1,1) -->
<g id="edge5" class="edge">
<title>node(3,2)&#45;&gt;node(1,1)</title>
<path fill="none" stroke="black" d="M696.86,-152.35C627.8,-139.49 498.27,-115.38 423.84,-101.52"/>
<polygon fill="black" stroke="black" points="424.19,-98.02 413.72,-99.63 422.91,-104.91 424.19,-98.02"/>
</g>
<!-- node(3,1) -->
<g id="node7" class="node">
<title>node(3,1)</title>
<ellipse fill="none" stroke="black" cx="743.34" cy="-90" rx="54.69" ry="18"/>
<text text-anchor="middle" x="743.34" y="-86.3" font-family="Times,serif" font-size="14.00">node(3,1)</text>
</g>
<!-- node(3,2)&#45;&gt;node(3,1) -->
<g id="edge6" class="edge">
<title>node(3,2)&#45;&gt;node(3,1)</title>
<path fill="none" stroke="black" d="M743.34,-143.7C743.34,-135.98 743.34,-126.71 743.34,-118.11"/>
<polygon fill="black" stroke="black" points="746.84,-118.1 743.34,-108.1 739.84,-118.1 746.84,-118.1"/>
</g>
<!-- node(0,0) (aka block 1) -->
<g id="node5" class="node">
<title>node(0,0) (aka block 1)</title>
<ellipse fill="none" stroke="black" cx="116.34" cy="-18" rx="116.18" ry="18"/>
<text text-anchor="middle" x="116.34" y="-14.3" font-family="Times,serif" font-size="14.00">node(0,0) (aka block 1)</text>
</g>
<!-- node(1,1)&#45;&gt;node(0,0) (aka block 1) -->
<g id="edge7" class="edge">
<title>node(1,1)&#45;&gt;node(0,0) (aka block 1)</title>
<path fill="none" stroke="black" d="M327.01,-77.75C287.38,-66.7 226.28,-49.66 180.07,-36.77"/>
<polygon fill="black" stroke="black" points="180.73,-33.32 170.15,-34.01 178.85,-40.07 180.73,-33.32"/>
</g>
<!-- node(1,0) (aka block 2) -->
<g id="node6" class="node">
<title>node(1,0) (aka block 2)</title>
<ellipse fill="none" stroke="black" cx="367.34" cy="-18" rx="116.18" ry="18"/>
<text text-anchor="middle" x="367.34" y="-14.3" font-family="Times,serif" font-size="14.00">node(1,0) (aka block 2)</text>
</g>
<!-- node(1,1)&#45;&gt;node(1,0) (aka block 2) -->
<g id="edge8" class="edge">
<title>node(1,1)&#45;&gt;node(1,0) (aka block 2)</title>
<path fill="none" stroke="black" d="M367.34,-71.7C367.34,-63.98 367.34,-54.71 367.34,-46.11"/>
<polygon fill="black" stroke="black" points="370.84,-46.1 367.34,-36.1 363.84,-46.1 370.84,-46.1"/>
</g>
<!-- node(2,0) (aka block 3) -->
<g id="node8" class="node">
<title>node(2,0) (aka block 3)</title>
<ellipse fill="none" stroke="black" cx="618.34" cy="-18" rx="116.18" ry="18"/>
<text text-anchor="middle" x="618.34" y="-14.3" font-family="Times,serif" font-size="14.00">node(2,0) (aka block 3)</text>
</g>
<!-- node(3,1)&#45;&gt;node(2,0) (aka block 3) -->
<g id="edge9" class="edge">
<title>node(3,1)&#45;&gt;node(2,0) (aka block 3)</title>
<path fill="none" stroke="black" d="M716.83,-74.15C699.38,-64.38 676.26,-51.44 656.8,-40.54"/>
<polygon fill="black" stroke="black" points="658.31,-37.37 647.87,-35.54 654.89,-43.48 658.31,-37.37"/>
</g>
<!-- node(3,0) (aka block 4) -->
<g id="node9" class="node">
<title>node(3,0) (aka block 4)</title>
<ellipse fill="none" stroke="black" cx="869.34" cy="-18" rx="116.18" ry="18"/>
<text text-anchor="middle" x="869.34" y="-14.3" font-family="Times,serif" font-size="14.00">node(3,0) (aka block 4)</text>
</g>
<!-- node(3,1)&#45;&gt;node(3,0) (aka block 4) -->
<g id="edge10" class="edge">
<title>node(3,1)&#45;&gt;node(3,0) (aka block 4)</title>
<path fill="none" stroke="black" d="M770.06,-74.15C787.65,-64.38 810.95,-51.44 830.57,-40.54"/>
<polygon fill="black" stroke="black" points="832.53,-43.46 839.57,-35.54 829.13,-37.34 832.53,-43.46"/>
</g>
<!-- node(5,1) -->
<g id="node11" class="node">
<title>node(5,1)</title>
<ellipse fill="none" stroke="black" cx="1371.34" cy="-90" rx="54.69" ry="18"/>
<text text-anchor="middle" x="1371.34" y="-86.3" font-family="Times,serif" font-size="14.00">node(5,1)</text>
</g>
<!-- node(7,2)&#45;&gt;node(5,1) -->
<g id="edge11" class="edge">
<title>node(7,2)&#45;&gt;node(5,1)</title>
<path fill="none" stroke="black" d="M1444.01,-145.12C1431.27,-135.63 1414.9,-123.44 1400.92,-113.03"/>
<polygon fill="black" stroke="black" points="1402.7,-109.99 1392.59,-106.82 1398.52,-115.6 1402.7,-109.99"/>
</g>
<!-- node(7,1) -->
<g id="node14" class="node">
<title>node(7,1)</title>
<ellipse fill="none" stroke="black" cx="1560.34" cy="-90" rx="54.69" ry="18"/>
<text text-anchor="middle" x="1560.34" y="-86.3" font-family="Times,serif" font-size="14.00">node(7,1)</text>
</g>
<!-- node(7,2)&#45;&gt;node(7,1) -->
<g id="edge12" class="edge">
<title>node(7,2)&#45;&gt;node(7,1)</title>
<path fill="none" stroke="black" d="M1486.9,-145.12C1499.77,-135.63 1516.32,-123.44 1530.44,-113.03"/>
<polygon fill="black" stroke="black" points="1532.89,-115.57 1538.87,-106.82 1528.74,-109.94 1532.89,-115.57"/>
</g>
<!-- node(4,0) (aka block 5) -->
<g id="node12" class="node">
<title>node(4,0) (aka block 5)</title>
<ellipse fill="none" stroke="black" cx="1120.34" cy="-18" rx="116.18" ry="18"/>
<text text-anchor="middle" x="1120.34" y="-14.3" font-family="Times,serif" font-size="14.00">node(4,0) (aka block 5)</text>
</g>
<!-- node(5,1)&#45;&gt;node(4,0) (aka block 5) -->
<g id="edge13" class="edge">
<title>node(5,1)&#45;&gt;node(4,0) (aka block 5)</title>
<path fill="none" stroke="black" d="M1331.01,-77.75C1291.38,-66.7 1230.28,-49.66 1184.07,-36.77"/>
<polygon fill="black" stroke="black" points="1184.73,-33.32 1174.15,-34.01 1182.85,-40.07 1184.73,-33.32"/>
</g>
<!-- node(5,0) (aka block 6) -->
<g id="node13" class="node">
<title>node(5,0) (aka block 6)</title>
<ellipse fill="none" stroke="black" cx="1371.34" cy="-18" rx="116.18" ry="18"/>
<text text-anchor="middle" x="1371.34" y="-14.3" font-family="Times,serif" font-size="14.00">node(5,0) (aka block 6)</text>
</g>
<!-- node(5,1)&#45;&gt;node(5,0) (aka block 6) -->
<g id="edge14" class="edge">
<title>node(5,1)&#45;&gt;node(5,0) (aka block 6)</title>
<path fill="none" stroke="black" d="M1371.34,-71.7C1371.34,-63.98 1371.34,-54.71 1371.34,-46.11"/>
<polygon fill="black" stroke="black" points="1374.84,-46.1 1371.34,-36.1 1367.84,-46.1 1374.84,-46.1"/>
</g>
<!-- node(6,0) (aka block 7) -->
<g id="node15" class="node">
<title>node(6,0) (aka block 7)</title>
<ellipse fill="none" stroke="black" cx="1622.34" cy="-18" rx="116.18" ry="18"/>
<text text-anchor="middle" x="1622.34" y="-14.3" font-family="Times,serif" font-size="14.00">node(6,0) (aka block 7)</text>
</g>
<!-- node(7,1)&#45;&gt;node(6,0) (aka block 7) -->
<g id="edge15" class="edge">
<title>node(7,1)&#45;&gt;node(6,0) (aka block 7)</title>
<path fill="none" stroke="black" d="M1575.03,-72.41C1582.64,-63.82 1592.08,-53.16 1600.53,-43.63"/>
<polygon fill="black" stroke="black" points="1603.31,-45.76 1607.32,-35.96 1598.07,-41.12 1603.31,-45.76"/>
</g>
<!-- node(7,0) (aka block 8) -->
<g id="node16" class="node">
<title>node(7,0) (aka block 8)</title>
<ellipse fill="none" stroke="black" cx="1873.34" cy="-18" rx="116.18" ry="18"/>
<text text-anchor="middle" x="1873.34" y="-14.3" font-family="Times,serif" font-size="14.00">node(7,0) (aka block 8)</text>
</g>
<!-- node(7,1)&#45;&gt;node(7,0) (aka block 8) -->
<g id="edge16" class="edge">
<title>node(7,1)&#45;&gt;node(7,0) (aka block 8)</title>
<path fill="none" stroke="black" d="M1600.89,-77.9C1608.66,-75.87 1616.74,-73.82 1624.34,-72 1681.24,-58.4 1745.88,-44.69 1795.04,-34.62"/>
<polygon fill="black" stroke="black" points="1795.87,-38.03 1804.97,-32.6 1794.47,-31.17 1795.87,-38.03"/>
</g>
<!-- node(9,1) -->
<g id="node18" class="node">
<title>node(9,1)</title>
<ellipse fill="none" stroke="black" cx="1749.34" cy="-162" rx="54.69" ry="18"/>
<text text-anchor="middle" x="1749.34" y="-158.3" font-family="Times,serif" font-size="14.00">node(9,1)</text>
</g>
<!-- node(10,2)&#45;&gt;node(9,1) -->
<g id="edge17" class="edge">
<title>node(10,2)&#45;&gt;node(9,1)</title>
<path fill="none" stroke="black" d="M1749.34,-215.7C1749.34,-207.98 1749.34,-198.71 1749.34,-190.11"/>
<polygon fill="black" stroke="black" points="1752.84,-190.1 1749.34,-180.1 1745.84,-190.1 1752.84,-190.1"/>
</g>
<!-- node(10,0) (aka block 11) -->
<g id="node21" class="node">
<title>node(10,0) (aka block 11)</title>
<ellipse fill="none" stroke="black" cx="1950.34" cy="-162" rx="128.08" ry="18"/>
<text text-anchor="middle" x="1950.34" y="-158.3" font-family="Times,serif" font-size="14.00">node(10,0) (aka block 11)</text>
</g>
<!-- node(10,2)&#45;&gt;node(10,0) (aka block 11) -->
<g id="edge18" class="edge">
<title>node(10,2)&#45;&gt;node(10,0) (aka block 11)</title>
<path fill="none" stroke="black" d="M1787.15,-219.83C1817.47,-209.27 1860.48,-194.29 1894.73,-182.37"/>
<polygon fill="black" stroke="black" points="1896.31,-185.52 1904.6,-178.93 1894,-178.91 1896.31,-185.52"/>
</g>
<!-- node(8,0) (aka block 9) -->
<g id="node19" class="node">
<title>node(8,0) (aka block 9)</title>
<ellipse fill="none" stroke="black" cx="1749.34" cy="-90" rx="116.18" ry="18"/>
<text text-anchor="middle" x="1749.34" y="-86.3" font-family="Times,serif" font-size="14.00">node(8,0) (aka block 9)</text>
</g>
<!-- node(9,1)&#45;&gt;node(8,0) (aka block 9) -->
<g id="edge19" class="edge">
<title>node(9,1)&#45;&gt;node(8,0) (aka block 9)</title>
<path fill="none" stroke="black" d="M1749.34,-143.7C1749.34,-135.98 1749.34,-126.71 1749.34,-118.11"/>
<polygon fill="black" stroke="black" points="1752.84,-118.1 1749.34,-108.1 1745.84,-118.1 1752.84,-118.1"/>
</g>
<!-- node(9,0) (aka block 10) -->
<g id="node20" class="node">
<title>node(9,0) (aka block 10)</title>
<ellipse fill="none" stroke="black" cx="2006.34" cy="-90" rx="122.38" ry="18"/>
<text text-anchor="middle" x="2006.34" y="-86.3" font-family="Times,serif" font-size="14.00">node(9,0) (aka block 10)</text>
</g>
<!-- node(9,1)&#45;&gt;node(9,0) (aka block 10) -->
<g id="edge20" class="edge">
<title>node(9,1)&#45;&gt;node(9,0) (aka block 10)</title>
<path fill="none" stroke="black" d="M1790.06,-149.91C1830.63,-138.86 1893.55,-121.72 1941.09,-108.77"/>
<polygon fill="black" stroke="black" points="1942.26,-112.08 1950.99,-106.08 1940.42,-105.33 1942.26,-112.08"/>
</g>
</g>
</svg>
